{
  "accessors": [
    {
      "bufferView": 2,
      "componentType": 5126,
      "count": 12512,
      "max": [
        4.333571434020996,
        4.906254768371582,
        7.335658550262451
      ],
      "min": [
        -11.204086303710938,
        -0.9818873405456543,
        -6.763785362243652
      ],
      "type": "VEC3"
    },
    {
      "bufferView": 2,
      "byteOffset": 150144,
      "componentType": 5126,
      "count": 12512,
      "max": [
        0.999817430973053,
        0.9999456405639648,
        0.9996346235275269
      ],
      "min": [
        -0.9999946355819702,
        -0.9999051690101624,
        -0.9997459053993225
      ],
      "type": "VEC3"
    },
    {
      "bufferView": 1,
      "componentType": 5126,
      "count": 12512,
      "max": [
        0.9972648620605469,
        1.0
      ],
      "min": [
        0.010790025815367699,
        0.0
      ],
      "type": "VEC2"
    },
    {
      "bufferView": 1,
      "byteOffset": 100096,
      "componentType": 5126,
      "count": 12512,
      "max": [
        0.9972648620605469,
        1.0
      ],
      "min": [
        0.010790025815367699,
        0.0
      ],
      "type": "VEC2"
    },
    {
      "bufferView": 0,
      "componentType": 5125,
      "count": 68352,
      "type": "SCALAR"
    },
    {
      "bufferView": 2,
      "byteOffset": 300288,
      "componentType": 5126,
      "count": 65532,
      "max": [
        0.07476924359798431,
        0.08298172801733017,
        0.9140757322311401
      ],
      "min": [
        -0.34605398774147034,
        -0.08298148214817047,
        0.2026096135377884
      ],
      "type": "VEC3"
    },
    {
      "bufferView": 2,
      "byteOffset": 1086672,
      "componentType": 5126,
      "count": 65532,
      "max": [
        1.0,
        1.0,
        1.0
      ],
      "min": [
        -1.0,
        -1.0,
        -1.0
      ],
      "type": "VEC3"
    },
    {
      "bufferView": 1,
      "byteOffset": 200192,
      "componentType": 5126,
      "count": 65532,
      "max": [
        0.8951258659362793,
        0.949346661567688
      ],
      "min": [
        -1.9147032404021047e-08,
        -3.3214792694025164e-08
      ],
      "type": "VEC2"
    },
    {
      "bufferView": 1,
      "byteOffset": 724448,
      "componentType": 5126,
      "count": 65532,
      "max": [
        1.0,
        0.9984664916992188
      ],
      "min": [
        0.0,
        0.0
      ],
      "type": "VEC2"
    },
    {
      "bufferView": 1,
      "byteOffset": 1248704,
      "componentType": 5126,
      "count": 65532,
      "max": [
        0.8951258659362793,
        0.949346661567688
      ],
      "min": [
        -1.9147032404021047e-08,
        -3.3214792694025164e-08
      ],
      "type": "VEC2"
    },
    {
      "bufferView": 0,
      "byteOffset": 273408,
      "componentType": 5125,
      "count": 320919,
      "type": "SCALAR"
    },
    {
      "bufferView": 2,
      "byteOffset": 1873056,
      "componentType": 5126,
      "count": 65532,
      "max": [
        0.34605398774147034,
        0.08298172801733017,
        0.9488755464553833
      ],
      "min": [
        -0.34605398774147034,
        -0.08298148214817047,
        0.18891844153404236
      ],
      "type": "VEC3"
    },
    {
      "bufferView": 2,
      "byteOffset": 2659440,
      "componentType": 5126,
      "count": 65532,
      "max": [
        1.0,
        1.0,
        1.0
      ],
      "min": [
        -1.0,
        -1.0,
        -1.0
      ],
      "type": "VEC3"
    },
    {
      "bufferView": 1,
      "byteOffset": 1772960,
      "componentType": 5126,
      "count": 65532,
      "max": [
        1.0000001192092896,
        0.9392459392547607
      ],
      "min": [
        8.573897147812204e-10,
        -1.802674454154385e-08
      ],
      "type": "VEC2"
    },
    {
      "bufferView": 1,
      "byteOffset": 2297216,
      "componentType": 5126,
      "count": 65532,
      "max": [
        0.999982476234436,
        0.9919063448905945
      ],
      "min": [
        0.0,
        0.0
      ],
      "type": "VEC2"
    },
    {
      "bufferView": 1,
      "byteOffset": 2821472,
      "componentType": 5126,
      "count": 65532,
      "max": [
        1.0000001192092896,
        0.9392459392547607
      ],
      "min": [
        8.573897147812204e-10,
        -1.802674454154385e-08
      ],
      "type": "VEC2"
    },
    {
      "bufferView": 0,
      "byteOffset": 1557084,
      "componentType": 5125,
      "count": 316488,
      "type": "SCALAR"
    },
    {
      "bufferView": 2,
      "byteOffset": 3445824,
      "componentType": 5126,
      "count": 39311,
      "max": [
        0.048439424484968185,
        0.012177495285868645,
        0.621855616569519
      ],
      "min": [
        -0.07466928660869598,
        -0.012177581898868084,
        0.5514180660247803
      ],
      "type": "VEC3"
    },
    {
      "bufferView": 2,
      "byteOffset": 3917556,
      "componentType": 5126,
      "count": 39311,
      "max": [
        0.9971916675567627,
        1.0,
        0.9998066425323486
      ],
      "min": [
        -0.9971911907196045,
        -1.0,
        -0.9998063445091248
      ],
      "type": "VEC3"
    },
    {
      "bufferView": 1,
      "byteOffset": 3345728,
      "componentType": 5126,
      "count": 39311,
      "max": [
        0.8133105039596558,
        0.8136247396469116
      ],
      "min": [
        0.00047207644092850387,
        0.5105648636817932
      ],
      "type": "VEC2"
    },
    {
      "bufferView": 1,
      "byteOffset": 3660216,
      "componentType": 5126,
      "count": 39311,
      "max": [
        1.224815845489502,
        0.9950543642044067
      ],
      "min": [
        1.5676021575927734e-05,
        0.0
      ],
      "type": "VEC2"
    },
    {
      "bufferView": 1,
      "byteOffset": 3974704,
      "componentType": 5126,
      "count": 39311,
      "max": [
        0.8133105039596558,
        0.8136247396469116
      ],
      "min": [
        0.00047207644092850387,
        0.5105648636817932
      ],
      "type": "VEC2"
    },
    {
      "bufferView": 0,
      "byteOffset": 2823036,
      "componentType": 5125,
      "count": 196641,
      "type": "SCALAR"
    },
    {
      "bufferView": 2,
      "byteOffset": 4389288,
      "componentType": 5126,
      "count": 7682,
      "max": [
        7.686034679412842,
        1.8328067064285278,
        5.41866397857666
      ],
      "min": [
        -2.446011781692505,
        -1.8328056335449219,
        -6.293534755706787
      ],
      "type": "VEC3"
    },
    {
      "bufferView": 2,
      "byteOffset": 4481472,
      "componentType": 5126,
      "count": 7682,
      "max": [
        0.9999982118606567,
        0.9999703168869019,
        0.9998872876167297
      ],
      "min": [
        -0.9999378323554993,
        -0.9999203085899353,
        -0.9999979734420776
      ],
      "type": "VEC3"
    },
    {
      "bufferView": 1,
      "byteOffset": 4289192,
      "componentType": 5126,
      "count": 7682,
      "max": [
        0.6521902084350586,
        0.6927427649497986
      ],
      "min": [
        0.36010435223579407,
        0.35510438680648804
      ],
      "type": "VEC2"
    },
    {
      "bufferView": 1,
      "byteOffset": 4350648,
      "componentType": 5126,
      "count": 7682,
      "max": [
        0.6521902084350586,
        0.6927427649497986
      ],
      "min": [
        0.36010435223579407,
        0.35510438680648804
      ],
      "type": "VEC2"
    },
    {
      "bufferView": 0,
      "byteOffset": 3609600,
      "componentType": 5125,
      "count": 46080,
      "type": "SCALAR"
    }
  ],
  "asset": {
    "extras": {
      "author": "Suyanto (https://sketchfab.com/AfifPutra)",
      "license": "CC-BY-4.0 (http://creativecommons.org/licenses/by/4.0/)",
      "source": "https://sketchfab.com/3d-models/human-organs-bced6b6ebded4845bcfb2496a6e6d35c",
      "title": "Human Organs"
    },
    "generator": "Sketchfab-15.55.0",
    "version": "2.0"
  },
  "bufferViews": [
    {
      "buffer": 0,
      "byteLength": 3793920,
      "name": "floatBufferViews",
      "target": 34963
    },
    {
      "buffer": 0,
      "byteLength": 4412104,
      "byteOffset": 3793920,
      "byteStride": 8,
      "name": "floatBufferViews",
      "target": 34962
    },
    {
      "buffer": 0,
      "byteLength": 4573656,
      "byteOffset": 8206024,
      "byteStride": 12,
      "name": "floatBufferViews",
      "target": 34962
    }
  ],
  "buffers": [
    {
      "byteLength": 12779680,
      "uri": "scene.bin"
    }
  ],
  "images": [
    {
      "uri": "textures/Intestines_baseColor.png"
    },
    {
      "uri": "textures/Intestines_metallicRoughness.png"
    },
    {
      "uri": "textures/Lungs_baseColor.png"
    },
    {
      "uri": "textures/Lungs_metallicRoughness.png"
    },
    {
      "uri": "textures/stomach_baseColor.png"
    },
    {
      "uri": "textures/stomach_metallicRoughness.png"
    }
  ],
  "materials": [
    {
      "doubleSided": true,
      "name": "Intestines",
      "pbrMetallicRoughness": {
        "baseColorTexture": {
          "index": 0
        },
        "metallicFactor": 0.0,
        "metallicRoughnessTexture": {
          "index": 1
        }
      }
    },
    {
      "doubleSided": true,
      "name": "Lungs",
      "pbrMetallicRoughness": {
        "baseColorTexture": {
          "index": 2
        },
        "metallicFactor": 0.0,
        "metallicRoughnessTexture": {
          "index": 3
        }
      }
    },
    {
      "doubleSided": true,
      "name": "stomach",
      "pbrMetallicRoughness": {
        "baseColorTexture": {
          "index": 4
        },
        "metallicFactor": 0.0,
        "metallicRoughnessTexture": {
          "index": 5
        }
      }
    }
  ],
  "meshes": [
    {
      "name": "Circle_Intestines_0",
      "primitives": [
        {
          "attributes": {
            "NORMAL": 1,
            "POSITION": 0,
            "TEXCOORD_0": 2,
            "TEXCOORD_1": 3
          },
          "indices": 4,
          "material": 0,
          "mode": 4
        }
      ]
    },
    {
      "name": "Cylinder.001_Lungs_0",
      "primitives": [
        {
          "attributes": {
            "NORMAL": 6,
            "POSITION": 5,
            "TEXCOORD_0": 7,
            "TEXCOORD_1": 8,
            "TEXCOORD_2": 9
          },
          "indices": 10,
          "material": 1,
          "mode": 4
        }
      ]
    },
    {
      "name": "Cylinder.001_Lungs_0",
      "primitives": [
        {
          "attributes": {
            "NORMAL": 12,
            "POSITION": 11,
            "TEXCOORD_0": 13,
            "TEXCOORD_1": 14,
            "TEXCOORD_2": 15
          },
          "indices": 16,
          "material": 1,
          "mode": 4
        }
      ]
    },
    {
      "name": "Cylinder.001_Lungs_0",
      "primitives": [
        {
          "attributes": {
            "NORMAL": 18,
            "POSITION": 17,
            "TEXCOORD_0": 19,
            "TEXCOORD_1": 20,
            "TEXCOORD_2": 21
          },
          "indices": 22,
          "material": 1,
          "mode": 4
        }
      ]
    },
    {
      "name": "Cylinder.005_stomach_0",
      "primitives": [
        {
          "attributes": {
            "NORMAL": 24,
            "POSITION": 23,
            "TEXCOORD_0": 25,
            "TEXCOORD_1": 26
          },
          "indices": 27,
          "material": 2,
          "mode": 4
        }
      ]
    }
  ],
  "nodes": [
    {
      "children": [
        1
      ],
      "matrix": [
        1.0,
        0.0,
        0.0,
        0.0,
        0.0,
        2.220446049250313e-16,
        -1.0,
        0.0,
        0.0,
        1.0,
        2.220446049250313e-16,
        0.0,
        0.0,
        0.0,
        0.0,
        1.0
      ],
      "name": "Sketchfab_model"
    },
    {
      "children": [
        2
      ],
      "matrix": [
        0.009999999776482582,
        0.0,
        0.0,
        0.0,
        0.0,
        0.0,
        0.009999999776482582,
        0.0,
        0.0,
        -0.009999999776482582,
        0.0,
        0.0,
        0.0,
        0.0,
        0.0,
        1.0
      ],
      "name": "854d22bf821b4a0891eb636c452595f6.fbx"
    },
    {
      "children": [
        3,
        5,
        9
      ],
      "name": "RootNode"
    },
    {
      "children": [
        4
      ],
      "matrix": [
        -1.9434863893107516e-07,
        -4.446178436279285,
        2.6501285471043135e-07,
        0.0,
        -7.243744243701828e-07,
        -2.6501282311843346e-07,
        -4.446178436279229,
        0.0,
        4.446178436279234,
        -1.9434868212325978e-07,
        -7.243744125231836e-07,
        0.0,
        99.46334075927734,
        24.199586868286133,
        16.80887222290039,
        1.0
      ],
      "name": "Circle"
    },
    {
      "mesh": 0,
      "name": "Circle_Intestines_0"
    },
    {
      "children": [
        6,
        7,
        8
      ],
      "matrix": [
        100.0,
        0.0,
        0.0,
        0.0,
        0.0,
        -1.629206793918314e-05,
        -99.99999999999868,
        0.0,
        0.0,
        99.99999999999868,
        -1.629206793918314e-05,
        0.0,
        0.0,
        0.0,
        0.0,
        1.0
      ],
      "name": "Cylinder.001"
    },
    {
      "mesh": 1,
      "name": "Cylinder.001_Lungs_0"
    },
    {
      "mesh": 2,
      "name": "Cylinder.001_Lungs_0"
    },
    {
      "mesh": 3,
      "name": "Cylinder.001_Lungs_0"
    },
    {
      "children": [
        10
      ],
      "matrix": [
        7.06238317489624,
        0.0,
        0.0,
        0.0,
        -0.0,
        -1.1506082649795347e-06,
        -7.062383174896147,
        0.0,
        0.0,
        7.062383174896147,
        -1.1506082649795347e-06,
        0.0,
        -119.77050018310547,
        57.5474739074707,
        -7.73201281845104e-06,
        1.0
      ],
      "name": "Cylinder.005"
    },
    {
      "mesh": 4,
      "name": "Cylinder.005_stomach_0"
    }
  ],
  "samplers": [
    {
      "magFilter": 9729,
      "minFilter": 9987,
      "wrapS": 10497,
      "wrapT": 10497
    }
  ],
  "scene": 0,
  "scenes": [
    {
      "name": "Sketchfab_Scene",
      "nodes": [
        0
      ]
    }
  ],
  "textures": [
    {
      "sampler": 0,
      "source": 0
    },
    {
      "sampler": 0,
      "source": 1
    },
    {
      "sampler": 0,
      "source": 2
    },
    {
      "sampler": 0,
      "source": 3
    },
    {
      "sampler": 0,
      "source": 4
    },
    {
      "sampler": 0,
      "source": 5
    }
  ]
}
